<svg width="59" height="77" viewBox="0 0 59 77" fill="none" xmlns="http://www.w3.org/2000/svg">
<path d="M21.9 62.5C21.8333 62.6333 21.5667 62.8667 21.1 63.2L20.4 63.4C20.2667 63.4 20.2 63.4667 20.2 63.6V63.8V63.9L20.5 67.4C20.5 68 20.5667 68.6333 20.7 69.3L20.9 72.3V72.7V73.1C20.5667 73.6333 20.2 73.9 19.8 73.9C19.3333 73.9 19.0667 73.6667 19 73.2L18.8 72.6L17.9 67.1L17.7 64.7C17.6333 64.6333 17.6 64.5333 17.6 64.4C17.6 64.1333 17.5 64.0667 17.3 64.2C17.1667 64.2667 17 64.3333 16.8 64.4C16.6 64.4667 16.3667 64.5 16.1 64.5L11.3 65.9L6.5 67.4C6.1 67.6 5.9 67.9 5.9 68.3V69.2V70V70.9V71.7C5.9 72.5 5.96667 73.5 6.1 74.7V75V75.2C5.96667 75.5333 5.73333 75.7 5.4 75.7C5.06667 75.7667 4.83333 75.6667 4.7 75.4C4.63333 75.2667 4.53333 74.9667 4.4 74.5C4.33333 74.0333 4.26667 73.5 4.2 72.9C4.13333 72.5667 4.1 72 4.1 71.2V69.9V68.5C4.1 68.3 4.03333 68.2667 3.9 68.4L2.3 69.1L1.7 69.3C1.3 69.4333 1.06667 69.5 1 69.5C0.866667 69.5667 0.7 69.6 0.5 69.6C0.166667 69.6 0.0333333 69.2667 0.0999999 68.6C0.0999999 68.3333 0.2 68.1667 0.4 68.1C0.466667 68.1 0.566667 68.0667 0.7 68C0.766667 67.9333 0.8 67.8667 0.8 67.8L2.2 67.1C2.86667 66.8333 3.36667 66.6 3.7 66.4C3.96667 66.3333 4.1 66.1333 4.1 65.8C4.1 64.4667 4.2 63.1 4.4 61.7C4.4 61.4333 4.43333 61.2 4.5 61V60.2C4.63333 58.2 4.86667 56.3667 5.2 54.7C5.73333 49.9 6.7 44.7 8.1 39.1L11.2 26.7L12.4 21.7C12.8 19.9667 13.2333 18.5 13.7 17.3C13.7 17.1 13.8 16.7667 14 16.3C14.2667 15.7667 14.5 15.4 14.7 15.2C14.9667 14.9333 15.2667 14.8 15.6 14.8C16 14.8 16.3333 14.9333 16.6 15.2L17.2 16.3C17.2 16.5667 17.3 17.1 17.5 17.9C17.7 18.9667 17.8 20.0333 17.8 21.1C17.8 21.9 17.8667 22.9 18 24.1V24.7V25.4C18 26.4667 18.0667 27.8667 18.2 29.6L18.4 34V35V35.9C18.4 36.9667 18.4333 37.7667 18.5 38.3V40.8L18.7 44.7C18.7 45.3667 18.7667 46.5 18.9 48.1L19.2 52.2C19.2 52.6 19.2667 53.2667 19.4 54.2C19.4 54.8 19.4333 55.5 19.5 56.3C19.6333 57.0333 19.7 57.6 19.7 58L20 60.9V61.1V61.3C20 61.5 20.1333 61.5667 20.4 61.5L20.8 61.4L21 61.3C21.7333 61.3 22.0333 61.7 21.9 62.5ZM17.3 61.3C17.2333 61.1 17.2 60.8333 17.2 60.5C17 58.7 16.9 57.6667 16.9 57.4L16.7 54.9C16.5667 53.7 16.5 52.8333 16.5 52.3C16.4333 51.8333 16.3667 51.1333 16.3 50.2C16.2333 49.2667 16.2 48.4333 16.2 47.7C16 45.2333 15.9 42.0667 15.9 38.2C15.7667 35.5333 15.7 33.4333 15.7 31.9V28.3C15.5667 25.1 15.5 23.1 15.5 22.3C15.4333 21.7667 15.4 20.9667 15.4 19.9C15.4 19.2333 15.3667 18.8 15.3 18.6V18.5L15.2 18.6C15.1333 18.6667 15.1 18.7667 15.1 18.9L14.1 22.3C13.8333 23.2333 13.6667 23.9667 13.6 24.5C12.8 27.3 12.1 30.1 11.5 32.9C10.8333 34.9 10.2 37.4 9.6 40.4C9 43 8.3 46.6667 7.5 51.4L7.2 53.6C6.73333 55.9333 6.5 57.8667 6.5 59.4C6.43333 60 6.26667 61.7 6 64.5V64.9V65.2C6 65.3333 6.06667 65.4 6.2 65.4L6.9 65.2L7.6 64.9L11.7 63.7C12.6333 63.5 14.0333 63.1333 15.9 62.6L17.2 62.3C17.2667 62.2333 17.3 62.1333 17.3 62V61.3ZM26.4539 53.4V55.2C26.4539 55.8667 26.4872 56.3667 26.5539 56.7V58.1C26.5539 58.6333 26.5872 59.0333 26.6539 59.3V60.5C26.7206 61.3667 26.8539 62.9333 27.0539 65.2C27.0539 65.4 27.1539 66.7 27.3539 69.1C27.3539 69.9 27.3872 70.4667 27.4539 70.8L27.6539 72.6L27.9539 74.4C27.9539 74.8 27.7872 75.0667 27.4539 75.2C27.1872 75.3333 27.0206 75.4 26.9539 75.4C26.7539 75.4 26.5872 75.3 26.4539 75.1C26.3872 74.9 26.3539 74.7 26.3539 74.5L26.1539 73.4C25.8206 71.6 25.5872 69.4333 25.4539 66.9C25.2539 65.5 25.1539 64.1333 25.1539 62.8L24.8539 58.8C24.8539 56.7333 24.8206 55.4 24.7539 54.8C24.7539 53.6667 24.7872 52.8 24.8539 52.2V49.5C24.8539 48.9667 24.9206 47.9667 25.0539 46.5C25.0539 45.9 25.0872 45.4 25.1539 45C25.2206 44.5333 25.2872 44.1333 25.3539 43.8C25.4206 43.0667 25.5539 41.9333 25.7539 40.4C25.7539 40.1333 25.8206 39.6667 25.9539 39L26.1539 37.5C26.5539 34.3 27.2206 30.9 28.1539 27.3C29.2206 23.0333 30.1206 20 30.8539 18.2C30.9206 17.9333 31.1872 17.3333 31.6539 16.4C31.6539 16.3333 31.7206 16.2333 31.8539 16.1L32.0539 15.7C32.3872 15.3667 32.6872 15.2 32.9539 15.2C33.2206 15.2 33.5872 15.4333 34.0539 15.9C34.0539 16.1 34.1539 16.3 34.3539 16.5C34.3539 16.6333 34.4539 17.1 34.6539 17.9C34.7872 19.3667 34.8539 20.2333 34.8539 20.5C34.8539 21.3 34.9206 22.3 35.0539 23.5V24V24.4C35.0539 25.4667 35.0872 26.2667 35.1539 26.8V29.3L35.3539 33.5C35.4206 33.8333 35.4539 34.5333 35.4539 35.6C35.4539 36.2 35.5206 37.0333 35.6539 38.1C35.6539 38.9667 35.6872 39.5333 35.7539 39.8L35.9539 43.5C35.9539 43.7 36.0539 44.7 36.2539 46.5L36.4539 49.5L36.6539 52.4C36.6539 53.2 36.6872 53.7667 36.7539 54.1L36.9539 55.7C36.9539 56.1 36.9872 56.4 37.0539 56.6V57.4V57.7V58.1C37.0539 58.3667 37.1206 58.5667 37.2539 58.7C37.2539 58.3667 37.2872 58.1667 37.3539 58.1C38.2206 52.8333 39.1872 48.1333 40.2539 44C41.1206 40.6667 42.2206 37.0333 43.5539 33.1C44.6872 29.3667 45.7206 26.4 46.6539 24.2C46.9872 23.4667 47.7206 21.8 48.8539 19.2C49.1206 18.5333 49.4206 17.9667 49.7539 17.5C50.0872 17.0333 50.4539 16.6333 50.8539 16.3C51.2539 16.1 51.6206 16 51.9539 16C52.4206 16 52.8206 16.2333 53.1539 16.7C53.4872 17.1 53.7206 17.5667 53.8539 18.1C54.0539 18.7 54.2539 20.3333 54.4539 23C54.4539 23.8667 54.4872 24.5 54.5539 24.9C54.7539 27.3 54.8539 29.6667 54.8539 32C54.9206 32.4667 54.9539 33.6 54.9539 35.4C54.9539 36.2 54.9872 36.7667 55.0539 37.1V38.9V39.7V40.4C55.0539 43 55.1206 45.7 55.2539 48.5C55.2539 51.0333 55.3872 53.7333 55.6539 56.6L55.8539 60.1C56.0539 62.0333 56.1539 64.2667 56.1539 66.8C56.2206 67.1333 56.2206 67.7 56.1539 68.5C56.1539 69.2333 56.1539 69.8 56.1539 70.2C56.0872 70.6 56.0539 71.1667 56.0539 71.9C56.0539 72.3 56.0206 72.5333 55.9539 72.6C55.7539 73.0667 55.4872 73.3 55.1539 73.3C54.9539 73.3 54.6872 73.1333 54.3539 72.8C54.0872 72.5333 53.9539 72.2667 53.9539 72L53.6539 69.5C53.5206 68.4333 53.4539 67.6 53.4539 67L53.2539 64.8C53.1206 63.8667 53.0539 63.1333 53.0539 62.6C52.9872 62.1333 52.9206 61.4333 52.8539 60.5C52.7872 59.5667 52.7539 58.7333 52.7539 58C52.4872 54 52.3539 51.0667 52.3539 49.2V46.7C52.2872 46.1667 52.2539 45.3667 52.2539 44.3V42.7V41.1C52.1872 40.3667 52.1539 38.7333 52.1539 36.2V35.1V34C52.1539 31.9333 52.1206 30.6 52.0539 30V29.3V28.6C52.0539 26.1333 52.0206 24.5333 51.9539 23.8C51.9539 23.4 51.8872 22.8 51.7539 22C51.6872 21.1333 51.6539 20.3667 51.6539 19.7C51.6539 19.3 51.6206 19.0333 51.5539 18.9V18.8V18.7C51.4206 18.7 51.3539 18.7333 51.3539 18.8L51.0539 19.3L50.7539 19.7C50.4206 20.3 50.0539 21.0667 49.6539 22C48.5206 24.4667 47.2872 27.7 45.9539 31.7C45.1539 33.8333 44.2539 36.6667 43.2539 40.2L42.4539 42.8C41.7206 45.4667 41.1539 47.9667 40.7539 50.3C40.1539 53.1 39.7872 54.9667 39.6539 55.9C39.3872 57.1667 39.1872 58.4333 39.0539 59.7L38.2539 65L38.0539 66.1C37.9206 66.6333 37.8539 67 37.8539 67.2L37.6539 67.8C37.4539 68.2 37.1206 68.4 36.6539 68.4C36.2539 68.4 35.9206 68.2667 35.6539 68C35.4539 67.6667 35.3539 67.3 35.3539 66.9L35.0539 65L34.8539 63.2L34.6539 61C34.5206 60.0667 34.4539 59.3 34.4539 58.7C34.3872 58.4333 34.3206 58.1 34.2539 57.7C34.1872 57.3 34.1539 56.8 34.1539 56.2L33.9539 53.1L33.7539 50.4L33.5539 48.6C33.4872 48.2667 33.4539 47.7 33.4539 46.9V46.2C33.3872 46 33.3539 45.7333 33.3539 45.4C33.3539 45 33.2872 44.4 33.1539 43.6C33.0872 42.7333 33.0539 41.9667 33.0539 41.3C33.0539 40.0333 33.0206 39.2333 32.9539 38.9C32.9539 36.5 32.8539 33.8 32.6539 30.8C32.6539 28.9333 32.6206 27.7333 32.5539 27.2V26.5V25.7V23.8V22C32.5539 20.6667 32.5206 19.8 32.4539 19.4H32.3539C32.1539 19.7333 31.9872 20.1667 31.8539 20.7C30.6539 24.5667 29.7872 27.6667 29.2539 30L28.0539 36L27.7539 38L27.5539 39.9C27.2206 41.9 27.0539 43.1667 27.0539 43.7C26.8539 45.5 26.7539 46.4333 26.7539 46.5C26.5539 47.5667 26.4539 49.3667 26.4539 51.9V53.4Z" fill="#F37B83"/>
</svg>
