<svg width="295" height="92" viewBox="0 0 295 92" fill="none" xmlns="http://www.w3.org/2000/svg">
<path d="M21.9 62.5C21.8333 62.6333 21.5667 62.8667 21.1 63.2L20.4 63.4C20.2667 63.4 20.2 63.4667 20.2 63.6V63.8V63.9L20.5 67.4C20.5 68 20.5667 68.6333 20.7 69.3L20.9 72.3V72.7V73.1C20.5667 73.6333 20.2 73.9 19.8 73.9C19.3333 73.9 19.0667 73.6667 19 73.2L18.8 72.6L17.9 67.1L17.7 64.7C17.6333 64.6333 17.6 64.5333 17.6 64.4C17.6 64.1333 17.5 64.0667 17.3 64.2C17.1667 64.2667 17 64.3333 16.8 64.4C16.6 64.4667 16.3667 64.5 16.1 64.5L11.3 65.9L6.5 67.4C6.1 67.6 5.9 67.9 5.9 68.3V69.2V70V70.9V71.7C5.9 72.5 5.96667 73.5 6.1 74.7V75V75.2C5.96667 75.5333 5.73333 75.7 5.4 75.7C5.06667 75.7667 4.83333 75.6667 4.7 75.4C4.63333 75.2667 4.53333 74.9667 4.4 74.5C4.33333 74.0333 4.26667 73.5 4.2 72.9C4.13333 72.5667 4.1 72 4.1 71.2V69.9V68.5C4.1 68.3 4.03333 68.2667 3.9 68.4L2.3 69.1L1.7 69.3C1.3 69.4333 1.06667 69.5 1 69.5C0.866667 69.5667 0.7 69.6 0.5 69.6C0.166667 69.6 0.0333333 69.2667 0.0999999 68.6C0.0999999 68.3333 0.2 68.1667 0.4 68.1C0.466667 68.1 0.566667 68.0667 0.7 68C0.766667 67.9333 0.8 67.8667 0.8 67.8L2.2 67.1C2.86667 66.8333 3.36667 66.6 3.7 66.4C3.96667 66.3333 4.1 66.1333 4.1 65.8C4.1 64.4667 4.2 63.1 4.4 61.7C4.4 61.4333 4.43333 61.2 4.5 61V60.2C4.63333 58.2 4.86667 56.3667 5.2 54.7C5.73333 49.9 6.7 44.7 8.1 39.1L11.2 26.7L12.4 21.7C12.8 19.9667 13.2333 18.5 13.7 17.3C13.7 17.1 13.8 16.7667 14 16.3C14.2667 15.7667 14.5 15.4 14.7 15.2C14.9667 14.9333 15.2667 14.8 15.6 14.8C16 14.8 16.3333 14.9333 16.6 15.2L17.2 16.3C17.2 16.5667 17.3 17.1 17.5 17.9C17.7 18.9667 17.8 20.0333 17.8 21.1C17.8 21.9 17.8667 22.9 18 24.1V24.7V25.4C18 26.4667 18.0667 27.8667 18.2 29.6L18.4 34V35V35.9C18.4 36.9667 18.4333 37.7667 18.5 38.3V40.8L18.7 44.7C18.7 45.3667 18.7667 46.5 18.9 48.1L19.2 52.2C19.2 52.6 19.2667 53.2667 19.4 54.2C19.4 54.8 19.4333 55.5 19.5 56.3C19.6333 57.0333 19.7 57.6 19.7 58L20 60.9V61.1V61.3C20 61.5 20.1333 61.5667 20.4 61.5L20.8 61.4L21 61.3C21.7333 61.3 22.0333 61.7 21.9 62.5ZM17.3 61.3C17.2333 61.1 17.2 60.8333 17.2 60.5C17 58.7 16.9 57.6667 16.9 57.4L16.7 54.9C16.5667 53.7 16.5 52.8333 16.5 52.3C16.4333 51.8333 16.3667 51.1333 16.3 50.2C16.2333 49.2667 16.2 48.4333 16.2 47.7C16 45.2333 15.9 42.0667 15.9 38.2C15.7667 35.5333 15.7 33.4333 15.7 31.9V28.3C15.5667 25.1 15.5 23.1 15.5 22.3C15.4333 21.7667 15.4 20.9667 15.4 19.9C15.4 19.2333 15.3667 18.8 15.3 18.6V18.5L15.2 18.6C15.1333 18.6667 15.1 18.7667 15.1 18.9L14.1 22.3C13.8333 23.2333 13.6667 23.9667 13.6 24.5C12.8 27.3 12.1 30.1 11.5 32.9C10.8333 34.9 10.2 37.4 9.6 40.4C9 43 8.3 46.6667 7.5 51.4L7.2 53.6C6.73333 55.9333 6.5 57.8667 6.5 59.4C6.43333 60 6.26667 61.7 6 64.5V64.9V65.2C6 65.3333 6.06667 65.4 6.2 65.4L6.9 65.2L7.6 64.9L11.7 63.7C12.6333 63.5 14.0333 63.1333 15.9 62.6L17.2 62.3C17.2667 62.2333 17.3 62.1333 17.3 62V61.3ZM27.4844 23.4C27.4177 23.6 27.3844 23.9 27.3844 24.3C27.051 25.5667 26.851 26.6333 26.7844 27.5C26.7177 27.5667 26.6844 27.7333 26.6844 28C26.6844 28.2 26.7844 28.2667 26.9844 28.2C27.251 28.2 28.0844 28.1 29.4844 27.9L30.5844 27.7L32.7844 27.5C32.9844 27.5 33.351 27.4333 33.8844 27.3C34.2844 27.3 34.5844 27.2667 34.7844 27.2H35.7844C36.1844 27.2 36.851 27.1333 37.7844 27H38.1844H38.4844C40.151 27 41.2177 26.9667 41.6844 26.9C44.351 26.7667 47.351 26.7 50.6844 26.7C51.151 26.7 51.4844 26.6667 51.6844 26.6H52.7844L53.1844 26.5L53.3844 26.4C53.5844 26.4 53.751 26.5333 53.8844 26.8C54.0177 27 54.0177 27.2 53.8844 27.4C53.8177 27.8 53.4177 28 52.6844 28H51.9844H51.3844C51.1844 28.0667 50.7844 28.1 50.1844 28.1H48.5844C47.1177 28.2333 45.8177 28.3 44.6844 28.3C44.351 28.3667 43.6177 28.4 42.4844 28.4C41.4177 28.5333 40.5844 28.6 39.9844 28.6C38.9844 28.6 38.3177 28.6333 37.9844 28.7H36.8844C36.6177 28.7667 36.2177 28.8 35.6844 28.8L33.6844 29C33.0177 29.1333 32.551 29.2 32.2844 29.2C31.8177 29.2 31.251 29.2667 30.5844 29.4C29.9177 29.5333 29.4844 29.6 29.2844 29.6C29.0844 29.6667 28.751 29.7 28.2844 29.7C28.0177 29.7 27.551 29.7667 26.8844 29.9H26.7844H26.6844L26.3844 30.2C26.3844 30.6667 26.351 31 26.2844 31.2C26.2844 31.4667 26.1177 33.1 25.7844 36.1L25.5844 38.2C25.451 39.4 25.3844 40.2667 25.3844 40.8L25.1844 44.5L24.9844 46.6C24.9177 47.0667 24.8844 47.7667 24.8844 48.7L24.7844 52.3L24.8844 55.9C24.8844 58.0333 25.0177 60.1667 25.2844 62.3C25.4177 63.9667 25.6844 65.4 26.0844 66.6C26.151 67 26.351 67.4333 26.6844 67.9C27.0177 68.3 27.3844 68.3 27.7844 67.9C28.1844 67.5667 28.4844 67.1667 28.6844 66.7C29.2844 65.5 29.7177 64.5 29.9844 63.7L32.3844 57.3C32.5177 56.9 32.651 56.5 32.7844 56.1C32.9844 55.6333 33.1844 55.1 33.3844 54.5C33.9177 52.9 34.251 51.9333 34.3844 51.6L34.7844 50.2V50.6C34.7844 50.4 34.951 49.9 35.2844 49.1C35.2844 48.9667 35.3177 48.8667 35.3844 48.8C35.5177 48.6667 35.651 48.6 35.7844 48.6C35.9844 48.6 36.151 48.6667 36.2844 48.8C36.4177 48.9333 36.451 49.1 36.3844 49.3C36.3844 49.5667 36.351 49.7333 36.2844 49.8C36.0844 50.4667 35.6177 51.9667 34.8844 54.3C34.551 55.1 34.451 55.3333 34.5844 55C34.7844 54.6667 34.7844 54.7333 34.5844 55.2C33.251 58.6 32.4844 60.6 32.2844 61.2L31.0844 64.4C30.6177 65.7333 30.151 66.8333 29.6844 67.7C29.351 68.3 29.0177 68.7667 28.6844 69.1C28.551 69.1667 28.3177 69.3667 27.9844 69.7C27.7177 69.8333 27.3844 69.9 26.9844 69.9C26.1177 69.9 25.4177 69.4 24.8844 68.4C24.6844 68.2 24.3844 67.6 23.9844 66.6C23.9177 66.3333 23.6177 65.1 23.0844 62.9C22.8844 61.3667 22.7177 60.1333 22.5844 59.2C22.5177 58.2 22.4844 57.2 22.4844 56.2C22.4177 55.3333 22.3844 54.0667 22.3844 52.4C22.3844 50.7333 22.4177 49.5 22.4844 48.7C22.4844 46.9667 22.5177 45.8667 22.5844 45.4V45.1V44.7C22.5844 44.2333 22.6177 43.9 22.6844 43.7V42.6C22.6844 42 22.7177 41.5333 22.7844 41.2L22.9844 39.7L23.2844 36.5C23.2844 36.2333 23.351 35.7667 23.4844 35.1C23.751 33.7667 23.8844 32.5667 23.8844 31.5C23.951 31.3667 23.9844 31.0667 23.9844 30.6C24.051 30.5333 24.051 30.5 23.9844 30.5C23.9844 30.4333 23.951 30.4 23.8844 30.4L20.5844 31.2L17.0844 32.1L15.1844 32.7L13.0844 33.3C13.0177 33.3667 12.9177 33.4333 12.7844 33.5C12.5844 33.5667 12.3844 33.6 12.1844 33.6C12.1177 33.6667 12.0177 33.7 11.8844 33.7C11.6844 33.7 11.551 33.6 11.4844 33.4C11.351 33.2 11.3177 33 11.3844 32.8C11.5177 32.6 11.6844 32.4333 11.8844 32.3C12.0844 32.3 12.251 32.2333 12.3844 32.1C12.451 32.0333 12.551 32 12.6844 32C12.751 32 12.8177 31.9667 12.8844 31.9C13.551 31.5 14.751 31.1 16.4844 30.7C18.151 30.2333 19.2177 29.9333 19.6844 29.8L23.3844 28.9C23.451 28.8333 23.6844 28.8 24.0844 28.8L24.3844 28.5C24.451 28.0333 24.5844 27.3667 24.7844 26.5C24.9844 25.5667 25.351 24.2 25.8844 22.4C25.8844 22.2667 25.9177 22.1667 25.9844 22.1L26.1844 21.8C26.251 21.5333 26.451 21.4 26.7844 21.4C27.3177 21.4 27.6177 21.6 27.6844 22V22.2V22.4L27.4844 23.4ZM33.3219 51.8L33.4219 49.8L33.6219 47.5C33.9552 44.7 34.4552 41.9667 35.1219 39.3C35.5885 37.1 36.3885 34.6667 37.5219 32C38.7219 29.2667 40.0552 26.9667 41.5219 25.1C41.9219 24.5 42.7552 23.7 44.0219 22.7C44.3552 22.3667 44.8552 22.1 45.5219 21.9C46.1885 21.6333 46.8552 21.5667 47.5219 21.7C48.8552 22.1667 49.5219 23.1 49.5219 24.5C49.5219 26.5667 48.8219 29.2667 47.4219 32.6C46.0885 35.9333 44.3219 39.0333 42.1219 41.9C40.6552 43.9667 39.7219 45.2333 39.3219 45.7L36.9219 48.1L36.7219 48.3L36.6219 48.4L36.3219 49C36.1885 50.3333 36.1219 50.9333 36.1219 50.8C36.0552 51.0667 36.0219 51.6333 36.0219 52.5C35.8885 55.3 35.8219 57.4 35.8219 58.8V60.3C35.7552 60.6333 35.7219 61.1333 35.7219 61.8V62.3V62.7L35.8219 62.9V63C35.8219 62.8667 35.8552 62.7667 35.9219 62.7C35.9885 61.9 36.1885 60.9333 36.5219 59.8C36.9219 57.8667 37.6219 55.6667 38.6219 53.2C39.6219 50.6667 40.6885 48.4 41.8219 46.4C42.5552 45.2667 43.3552 44.3 44.2219 43.5L45.3219 42.7C45.7885 42.3667 46.2552 42.2 46.7219 42.2C47.1219 42.2 47.5885 42.3667 48.1219 42.7C48.5885 43.0333 48.8552 43.2667 48.9219 43.4C50.1885 45 51.2219 47.3667 52.0219 50.5L53.3219 54.5C53.5885 55.3 53.8219 55.8667 54.0219 56.2C54.0219 56.1333 54.0219 56.1333 54.0219 56.2C54.0885 56.2 54.1552 56.2667 54.2219 56.4C54.2885 56.5333 54.3552 56.7 54.4219 56.9C54.6885 57.3 55.0885 57.2667 55.6219 56.8C56.2219 56.2667 56.7219 55.5667 57.1219 54.7L57.7219 53.3L58.3219 51.9L59.2219 49.2C59.3552 48.9333 59.5219 48.7667 59.7219 48.7C60.1885 48.7 60.4219 48.9333 60.4219 49.4C60.4219 49.5333 60.3552 49.8667 60.2219 50.4L59.9219 51.6L59.5219 52.8L58.7219 54.7C58.3219 55.5667 57.9552 56.2667 57.6219 56.8C57.3552 57.2667 56.9219 57.8 56.3219 58.4C55.9219 58.7333 55.5552 58.9333 55.2219 59C54.5552 59.1333 54.0885 59.1 53.8219 58.9C53.2885 58.7667 52.8552 58.5333 52.5219 58.2C52.2552 57.8667 51.8885 57.3 51.4219 56.5C50.6885 54.7 50.2219 53.5 50.0219 52.9C49.8885 52.4333 49.5885 51.3333 49.1219 49.6C48.7885 48.4667 48.3552 47.3 47.8219 46.1C47.4885 45.6333 47.2885 45.2667 47.2219 45C47.2219 44.8667 47.1219 44.7333 46.9219 44.6C46.7885 44.4667 46.6552 44.4333 46.5219 44.5C46.1885 44.5667 45.9552 44.6667 45.8219 44.8C45.4219 45.0667 45.0219 45.4 44.6219 45.8C44.1552 46.3333 43.6219 47.1 43.0219 48.1C41.2885 50.9667 39.8219 54.4 38.6219 58.4C38.4885 58.8667 38.1552 60.2333 37.6219 62.5L36.4219 68.5C36.2885 69.0333 36.1219 70.0333 35.9219 71.5V72.8V73.6C35.8552 73.8 35.8219 74.0667 35.8219 74.4C35.8219 74.9333 35.7219 75.3667 35.5219 75.7C35.3885 76.0333 35.0552 76.1 34.5219 75.9C33.9885 75.8333 33.7219 75.1667 33.7219 73.9C33.6552 73.5667 33.5885 73.0667 33.5219 72.4C33.4552 71.6667 33.4219 71.0333 33.4219 70.5V69.4C33.3552 69.2 33.3219 68.8333 33.3219 68.3C33.1219 66.4333 33.0219 63.6333 33.0219 59.9C33.0219 56.4333 33.1219 53.7333 33.3219 51.8ZM45.8219 23.7L45.5219 23.9C45.3885 24.0333 45.2885 24.1 45.2219 24.1C44.3552 24.7667 43.4552 25.8333 42.5219 27.3C40.8552 29.9667 39.7885 32.3333 39.3219 34.4C38.4552 37.4 37.9552 39.1333 37.8219 39.6L37.4219 41.7C37.2885 42.3 37.0552 43.6667 36.7219 45.8L36.8219 45.9L36.9219 45.8L38.2219 44.3C38.2219 44.3 39.1219 43.1 40.9219 40.7C44.7885 35.3667 47.1219 30.1667 47.9219 25.1C47.9219 24.6333 47.8552 24.2667 47.7219 24C47.6552 23.7333 47.4219 23.5333 47.0219 23.4H46.8219H46.7219C46.3885 23.4 46.0885 23.5 45.8219 23.7ZM69.0844 46C68.6844 46 68.1844 46.1 67.5844 46.3C66.451 46.5667 65.4177 47.1667 64.4844 48.1C62.6177 49.6333 61.2844 51.4333 60.4844 53.5C60.2177 54.0333 60.0844 54.6 60.0844 55.2C60.0844 55.6667 60.3177 55.8667 60.7844 55.8C61.5844 55.7333 62.2844 55.5333 62.8844 55.2C63.4844 54.8667 64.3177 54.2333 65.3844 53.3L67.4844 51.3L69.5844 49L71.3844 46.9L73.2844 44.8C73.951 44.2667 74.3844 43.9333 74.5844 43.8C74.851 43.6667 75.2177 43.6 75.6844 43.6C76.551 43.8 77.151 44.3333 77.4844 45.2C77.6177 45.5333 77.7177 45.9 77.7844 46.3C77.9177 46.7 78.0177 46.9667 78.0844 47.1C78.6177 48.9667 79.151 50.4 79.6844 51.4C79.951 52.2667 80.3844 52.9333 80.9844 53.4C81.451 53.8667 81.8177 54.1 82.0844 54.1C82.6844 54.1 83.2844 53.8 83.8844 53.2C84.2177 52.9333 84.9177 52.2 85.9844 51C86.251 50.6 86.4844 50.3 86.6844 50.1L87.2844 49.2C87.4177 49 87.5844 48.9 87.7844 48.9C87.9844 48.9 88.151 49 88.2844 49.2C88.4844 49.3333 88.5844 49.5333 88.5844 49.8C88.5177 50 88.4177 50.1667 88.2844 50.3C87.8177 50.8333 87.3844 51.4667 86.9844 52.2C85.7177 54.0667 84.5177 55.2333 83.3844 55.7C82.7844 55.9 82.251 56 81.7844 56C81.1844 56 80.5844 55.8 79.9844 55.4C79.1844 54.9333 78.4844 54.1333 77.8844 53C77.351 52.1333 76.851 51.2 76.3844 50.2C75.9844 49.2 75.7177 48.5333 75.5844 48.2C75.5844 48.0667 75.4844 47.7333 75.2844 47.2C75.0844 46.6 74.851 46.3 74.5844 46.3C74.3177 46.3 73.9844 46.5333 73.5844 47L71.1844 49.6C69.9177 51.0667 68.551 52.5 67.0844 53.9C65.6177 55.3 64.4844 56.2333 63.6844 56.7C62.351 57.5 61.151 57.9 60.0844 57.9C58.8177 57.9 58.0844 57.1667 57.8844 55.7C57.8177 54.5667 58.1844 53.1 58.9844 51.3C60.9177 47.1667 63.7844 44.7333 67.5844 44C67.851 43.9333 68.2177 43.9 68.6844 43.9C69.2844 43.9 69.7177 43.9667 69.9844 44.1C70.251 44.1 70.5177 44.2333 70.7844 44.5C71.051 44.7667 71.0844 45.0667 70.8844 45.4C70.8177 45.8 70.5844 46 70.1844 46H69.7844H69.3844H69.0844ZM93.0375 50.7C93.0375 52.1 93.0708 53.3 93.1375 54.3C93.2042 55.3 93.2708 56.1333 93.3375 56.8C93.3375 57.6 93.3708 58.1667 93.4375 58.5L93.6375 60.1C93.6375 60.7 93.7375 61.3667 93.9375 62.1C94.0042 62.3 94.0708 62.5333 94.1375 62.8C94.2042 63.0667 94.2708 63.2333 94.3375 63.3C94.4708 63.3 94.6042 63.2667 94.7375 63.2C95.2708 63.1333 95.8042 62.7667 96.3375 62.1C97.2708 60.9 98.1375 59.5 98.9375 57.9C99.4708 56.8333 99.8375 56 100.038 55.4C100.371 54.4667 100.704 53.6 101.038 52.8L101.637 51.1L102.338 49.4C102.338 49.2 102.504 48.9667 102.838 48.7C103.304 48.5667 103.571 48.7333 103.638 49.2V49.7C103.371 50.4333 103.171 51.0333 103.038 51.5C101.038 57.3667 99.1375 61.3667 97.3375 63.5C96.9375 63.9667 96.4375 64.3667 95.8375 64.7C95.4375 64.8333 95.2042 64.9 95.1375 64.9C94.4708 65.1 93.8042 64.9333 93.1375 64.4C92.4708 63.8 92.0375 63.1667 91.8375 62.5C91.1708 60.7 90.7708 58.3333 90.6375 55.4C90.5042 52.2 90.4375 49.9 90.4375 48.5C90.4375 47.5667 90.3375 46.6667 90.1375 45.8C89.9375 45 89.8375 44.5667 89.8375 44.5C89.5708 44.0333 89.2708 43.7 88.9375 43.5L88.7375 43.4V44.4C88.6708 44.6 88.6375 44.9 88.6375 45.3L88.5375 47.2L88.6375 49.1V51.9V54.7V56.3V57.9V58.4V58.7C88.5708 59.1667 88.3375 59.4 87.9375 59.4C87.8042 59.4 87.5708 59.2 87.2375 58.8C87.1708 58.1333 87.1375 56.6 87.1375 54.2V49.9L87.3375 45.4C87.3375 44.0667 87.3708 43.2333 87.4375 42.9L87.0375 42.6C86.5708 42.2667 86.3375 41.8667 86.3375 41.4C86.3375 41 86.6042 40.9 87.1375 41.1C87.4708 41.1 87.6708 41.1333 87.7375 41.2C88.6708 41.4 89.5042 41.7667 90.2375 42.3C90.9708 42.8333 91.4708 43.3667 91.7375 43.9L91.9375 44.5L92.2375 45.2C92.2375 45.3333 92.3042 45.6 92.4375 46L92.6375 46.7C92.9042 48.2333 93.0375 49.5667 93.0375 50.7ZM110.465 47.8C110.198 49 109.598 50.9 108.665 53.5C108.398 54.0333 108.065 54.8333 107.665 55.9C107.265 56.8333 106.798 57.5 106.265 57.9C105.998 58.0333 105.765 58.1 105.565 58.1C105.098 58.1 104.665 57.8 104.265 57.2C104.065 57 103.832 56.5667 103.565 55.9C103.232 55.1667 102.998 54.2333 102.865 53.1C102.598 52.0333 102.465 50.6 102.465 48.8V48.5C102.465 47.6333 102.765 47.2333 103.365 47.3C103.698 47.3 103.898 47.4333 103.965 47.7C103.965 47.9 104.065 48.1 104.265 48.3L104.565 50C104.565 50.4667 104.632 51.0333 104.765 51.7L104.965 53.5C105.232 54.9 105.398 55.7 105.465 55.9C105.598 56.0333 105.665 56.2 105.665 56.4H105.865L105.965 56.2L106.165 55.9L106.565 55.1L106.965 54.3C107.698 52.5667 108.432 50.4333 109.165 47.9L109.565 46C109.632 45.7333 109.798 45.1 110.065 44.1L110.665 41.3C110.732 40.8333 110.898 39.9 111.165 38.5L111.865 35.3C111.998 34.8333 112.098 34.5667 112.165 34.5C112.232 34.0333 112.498 33.8 112.965 33.8C113.232 33.8 113.398 34 113.465 34.4C113.332 35.8667 113.065 37.3667 112.665 38.9C111.998 41.5667 111.665 43.0333 111.665 43.3L110.465 47.8ZM124.065 46C123.665 46 123.165 46.1 122.565 46.3C121.432 46.5667 120.398 47.1667 119.465 48.1C117.598 49.6333 116.265 51.4333 115.465 53.5C115.198 54.0333 115.065 54.6 115.065 55.2C115.065 55.6667 115.298 55.8667 115.765 55.8C116.565 55.7333 117.265 55.5333 117.865 55.2C118.465 54.8667 119.298 54.2333 120.365 53.3L122.465 51.3L124.565 49L126.365 46.9L128.265 44.8C128.932 44.2667 129.365 43.9333 129.565 43.8C129.832 43.6667 130.198 43.6 130.665 43.6C131.532 43.8 132.132 44.3333 132.465 45.2C132.598 45.5333 132.698 45.9 132.765 46.3C132.898 46.7 132.998 46.9667 133.065 47.1C133.598 48.9667 134.132 50.4 134.665 51.4C134.932 52.2667 135.365 52.9333 135.965 53.4C136.432 53.8667 136.798 54.1 137.065 54.1C137.665 54.1 138.265 53.8 138.865 53.2C139.198 52.9333 139.898 52.2 140.965 51C141.232 50.6 141.465 50.3 141.665 50.1L142.265 49.2C142.398 49 142.565 48.9 142.765 48.9C142.965 48.9 143.132 49 143.265 49.2C143.465 49.3333 143.565 49.5333 143.565 49.8C143.498 50 143.398 50.1667 143.265 50.3C142.798 50.8333 142.365 51.4667 141.965 52.2C140.698 54.0667 139.498 55.2333 138.365 55.7C137.765 55.9 137.232 56 136.765 56C136.165 56 135.565 55.8 134.965 55.4C134.165 54.9333 133.465 54.1333 132.865 53C132.332 52.1333 131.832 51.2 131.365 50.2C130.965 49.2 130.698 48.5333 130.565 48.2C130.565 48.0667 130.465 47.7333 130.265 47.2C130.065 46.6 129.832 46.3 129.565 46.3C129.298 46.3 128.965 46.5333 128.565 47L126.165 49.6C124.898 51.0667 123.532 52.5 122.065 53.9C120.598 55.3 119.465 56.2333 118.665 56.7C117.332 57.5 116.132 57.9 115.065 57.9C113.798 57.9 113.065 57.1667 112.865 55.7C112.798 54.5667 113.165 53.1 113.965 51.3C115.898 47.1667 118.765 44.7333 122.565 44C122.832 43.9333 123.198 43.9 123.665 43.9C124.265 43.9 124.698 43.9667 124.965 44.1C125.232 44.1 125.498 44.2333 125.765 44.5C126.032 44.7667 126.065 45.0667 125.865 45.4C125.798 45.8 125.565 46 125.165 46H124.765H124.365H124.065ZM159.657 53.4V55.2C159.657 55.8667 159.69 56.3667 159.757 56.7V58.1C159.757 58.6333 159.79 59.0333 159.857 59.3V60.5C159.924 61.3667 160.057 62.9333 160.257 65.2C160.257 65.4 160.357 66.7 160.557 69.1C160.557 69.9 160.59 70.4667 160.657 70.8L160.857 72.6L161.157 74.4C161.157 74.8 160.99 75.0667 160.657 75.2C160.39 75.3333 160.224 75.4 160.157 75.4C159.957 75.4 159.79 75.3 159.657 75.1C159.59 74.9 159.557 74.7 159.557 74.5L159.357 73.4C159.024 71.6 158.79 69.4333 158.657 66.9C158.457 65.5 158.357 64.1333 158.357 62.8L158.057 58.8C158.057 56.7333 158.024 55.4 157.957 54.8C157.957 53.6667 157.99 52.8 158.057 52.2V49.5C158.057 48.9667 158.124 47.9667 158.257 46.5C158.257 45.9 158.29 45.4 158.357 45C158.424 44.5333 158.49 44.1333 158.557 43.8C158.624 43.0667 158.757 41.9333 158.957 40.4C158.957 40.1333 159.024 39.6667 159.157 39L159.357 37.5C159.757 34.3 160.424 30.9 161.357 27.3C162.424 23.0333 163.324 20 164.057 18.2C164.124 17.9333 164.39 17.3333 164.857 16.4C164.857 16.3333 164.924 16.2333 165.057 16.1L165.257 15.7C165.59 15.3667 165.89 15.2 166.157 15.2C166.424 15.2 166.79 15.4333 167.257 15.9C167.257 16.1 167.357 16.3 167.557 16.5C167.557 16.6333 167.657 17.1 167.857 17.9C167.99 19.3667 168.057 20.2333 168.057 20.5C168.057 21.3 168.124 22.3 168.257 23.5V24V24.4C168.257 25.4667 168.29 26.2667 168.357 26.8V29.3L168.557 33.5C168.624 33.8333 168.657 34.5333 168.657 35.6C168.657 36.2 168.724 37.0333 168.857 38.1C168.857 38.9667 168.89 39.5333 168.957 39.8L169.157 43.5C169.157 43.7 169.257 44.7 169.457 46.5L169.657 49.5L169.857 52.4C169.857 53.2 169.89 53.7667 169.957 54.1L170.157 55.7C170.157 56.1 170.19 56.4 170.257 56.6V57.4V57.7V58.1C170.257 58.3667 170.324 58.5667 170.457 58.7C170.457 58.3667 170.49 58.1667 170.557 58.1C171.424 52.8333 172.39 48.1333 173.457 44C174.324 40.6667 175.424 37.0333 176.757 33.1C177.89 29.3667 178.924 26.4 179.857 24.2C180.19 23.4667 180.924 21.8 182.057 19.2C182.324 18.5333 182.624 17.9667 182.957 17.5C183.29 17.0333 183.657 16.6333 184.057 16.3C184.457 16.1 184.824 16 185.157 16C185.624 16 186.024 16.2333 186.357 16.7C186.69 17.1 186.924 17.5667 187.057 18.1C187.257 18.7 187.457 20.3333 187.657 23C187.657 23.8667 187.69 24.5 187.757 24.9C187.957 27.3 188.057 29.6667 188.057 32C188.124 32.4667 188.157 33.6 188.157 35.4C188.157 36.2 188.19 36.7667 188.257 37.1V38.9V39.7V40.4C188.257 43 188.324 45.7 188.457 48.5C188.457 51.0333 188.59 53.7333 188.857 56.6L189.057 60.1C189.257 62.0333 189.357 64.2667 189.357 66.8C189.424 67.1333 189.424 67.7 189.357 68.5C189.357 69.2333 189.357 69.8 189.357 70.2C189.29 70.6 189.257 71.1667 189.257 71.9C189.257 72.3 189.224 72.5333 189.157 72.6C188.957 73.0667 188.69 73.3 188.357 73.3C188.157 73.3 187.89 73.1333 187.557 72.8C187.29 72.5333 187.157 72.2667 187.157 72L186.857 69.5C186.724 68.4333 186.657 67.6 186.657 67L186.457 64.8C186.324 63.8667 186.257 63.1333 186.257 62.6C186.19 62.1333 186.124 61.4333 186.057 60.5C185.99 59.5667 185.957 58.7333 185.957 58C185.69 54 185.557 51.0667 185.557 49.2V46.7C185.49 46.1667 185.457 45.3667 185.457 44.3V42.7V41.1C185.39 40.3667 185.357 38.7333 185.357 36.2V35.1V34C185.357 31.9333 185.324 30.6 185.257 30V29.3V28.6C185.257 26.1333 185.224 24.5333 185.157 23.8C185.157 23.4 185.09 22.8 184.957 22C184.89 21.1333 184.857 20.3667 184.857 19.7C184.857 19.3 184.824 19.0333 184.757 18.9V18.8V18.7C184.624 18.7 184.557 18.7333 184.557 18.8L184.257 19.3L183.957 19.7C183.624 20.3 183.257 21.0667 182.857 22C181.724 24.4667 180.49 27.7 179.157 31.7C178.357 33.8333 177.457 36.6667 176.457 40.2L175.657 42.8C174.924 45.4667 174.357 47.9667 173.957 50.3C173.357 53.1 172.99 54.9667 172.857 55.9C172.59 57.1667 172.39 58.4333 172.257 59.7L171.457 65L171.257 66.1C171.124 66.6333 171.057 67 171.057 67.2L170.857 67.8C170.657 68.2 170.324 68.4 169.857 68.4C169.457 68.4 169.124 68.2667 168.857 68C168.657 67.6667 168.557 67.3 168.557 66.9L168.257 65L168.057 63.2L167.857 61C167.724 60.0667 167.657 59.3 167.657 58.7C167.59 58.4333 167.524 58.1 167.457 57.7C167.39 57.3 167.357 56.8 167.357 56.2L167.157 53.1L166.957 50.4L166.757 48.6C166.69 48.2667 166.657 47.7 166.657 46.9V46.2C166.59 46 166.557 45.7333 166.557 45.4C166.557 45 166.49 44.4 166.357 43.6C166.29 42.7333 166.257 41.9667 166.257 41.3C166.257 40.0333 166.224 39.2333 166.157 38.9C166.157 36.5 166.057 33.8 165.857 30.8C165.857 28.9333 165.824 27.7333 165.757 27.2V26.5V25.7V23.8V22C165.757 20.6667 165.724 19.8 165.657 19.4H165.557C165.357 19.7333 165.19 20.1667 165.057 20.7C163.857 24.5667 162.99 27.6667 162.457 30L161.257 36L160.957 38L160.757 39.9C160.424 41.9 160.257 43.1667 160.257 43.7C160.057 45.5 159.957 46.4333 159.957 46.5C159.757 47.5667 159.657 49.3667 159.657 51.9V53.4ZM201.032 47.4C198.365 52.8667 196.165 56.5 194.432 58.3C193.699 59.1 193.065 59.5 192.532 59.5C192.065 59.5 191.632 59.3 191.232 58.9C190.765 58.1667 190.432 57.2333 190.232 56.1C190.232 54.7667 190.332 53.5667 190.532 52.5C190.732 51.4333 190.865 50.6 190.932 50L191.132 49.3C191.265 48.7 191.499 48.2667 191.832 48L192.232 47.9C192.632 47.9 192.865 48.1 192.932 48.5V49.1L192.732 50.8L192.032 55.3L191.932 56C191.932 56.2667 191.999 56.6 192.132 57C192.199 57.6667 192.432 58 192.832 58C193.232 58 193.732 57.5667 194.332 56.7C196.332 53.9667 198.699 49.5667 201.432 43.5L203.132 39.7C203.265 39.4333 203.432 39.0333 203.632 38.5L203.732 38.3L203.932 38.1C203.999 37.8333 204.199 37.7 204.532 37.7C205.065 37.7 205.432 37.9667 205.632 38.5V38.9V39.2V40C205.565 40.2 205.532 40.4333 205.532 40.7C205.332 41.5667 205.232 42.6 205.232 43.8C205.032 45.2 204.932 47.1 204.932 49.5C204.799 52.1667 204.899 54.3 205.232 55.9C205.232 56.1667 205.265 56.3667 205.332 56.5L205.532 57.1L205.732 57.5C205.732 57.7 205.799 57.7333 205.932 57.6C206.132 57.6 206.232 57.5333 206.232 57.4L206.832 56.7C207.299 56.0333 207.732 55.3667 208.132 54.7C208.732 53.6333 209.232 52.6333 209.632 51.7C210.032 50.7667 210.299 50.1667 210.432 49.9C210.499 49.6333 210.665 49.3333 210.932 49C210.999 48.8667 211.099 48.7667 211.232 48.7C211.432 48.5667 211.632 48.5333 211.832 48.6C212.099 48.6667 212.165 48.8667 212.032 49.2L211.932 49.5L210.432 52.6C210.032 53.5333 209.532 54.5333 208.932 55.6C208.399 56.6 208.032 57.2667 207.832 57.6C207.832 57.6 207.499 57.9333 206.832 58.6L206.532 58.8L206.332 58.9C206.132 59.0333 205.865 59.1 205.532 59.1C205.199 59.1 204.865 58.9 204.532 58.5C204.199 58.1667 203.999 57.8333 203.932 57.5C203.665 57.0333 203.432 56.3667 203.232 55.5C203.032 54.5667 202.932 53.6667 202.932 52.8C202.865 52.2 202.832 50.8667 202.832 48.8C202.832 48.0667 202.865 47.5333 202.932 47.2V45.7C202.932 45.5 202.999 44.9333 203.132 44C203.132 43.7333 203.099 43.5667 203.032 43.5C203.032 43.3667 202.999 43.3667 202.932 43.5L201.032 47.4ZM211.161 47.8C211.361 47.4667 211.594 47.3 211.861 47.3C212.394 47.3 212.661 47.6 212.661 48.2V48.7V49.1L212.761 51.6C213.361 50.1333 214.228 48.5333 215.361 46.8L217.061 44.3C218.394 42.2333 219.694 40.5667 220.961 39.3C221.428 38.8333 222.094 38.3333 222.961 37.8L223.761 37.4C224.294 37.2667 224.694 37.2 224.961 37.2C225.694 37.2 226.294 37.5 226.761 38.1L227.461 39.3C227.794 40.2333 227.994 41.0667 228.061 41.8C228.328 43.4 228.528 45.0667 228.661 46.8C228.728 47.9333 228.861 49.4 229.061 51.2C229.328 53 229.561 54.4 229.761 55.4C229.961 56.4667 230.328 56.9 230.861 56.7C230.994 56.7 231.094 56.6667 231.161 56.6L231.461 56.4C232.328 55.5333 232.794 55.0333 232.861 54.9C234.394 52.8333 235.361 51.5333 235.761 51C236.294 50.0667 236.628 49.5333 236.761 49.4C237.361 48.4 237.794 48.3 238.061 49.1C238.061 49.4333 237.961 49.7 237.761 49.9C236.628 51.9 235.661 53.4667 234.861 54.6C234.528 54.9333 234.194 55.3667 233.861 55.9C233.328 56.5 232.794 57.0333 232.261 57.5C231.794 57.9 231.261 58.2 230.661 58.4C230.528 58.4667 230.328 58.5 230.061 58.5C229.594 58.5 229.194 58.4 228.861 58.2C228.594 57.9333 228.394 57.6333 228.261 57.3C228.061 57.1 227.894 56.7667 227.761 56.3C227.428 55.5667 227.128 54.3 226.861 52.5C226.661 50.7 226.528 49.1333 226.461 47.8C226.461 45.1333 226.328 43.0333 226.061 41.5C225.994 40.7667 225.828 40.1667 225.561 39.7C225.494 39.6333 225.394 39.5 225.261 39.3C225.194 39.0333 225.094 38.8667 224.961 38.8C224.828 38.7333 224.661 38.7 224.461 38.7C224.394 38.7 224.161 38.7667 223.761 38.9C222.494 39.4333 220.994 40.8333 219.261 43.1C217.528 45.5667 216.061 47.9333 214.861 50.2C214.128 51.5333 213.628 52.7667 213.361 53.9L212.761 55.6L212.561 56C212.094 56.8 211.628 56.8667 211.161 56.2C211.028 56.0667 210.961 55.8333 210.961 55.5V54.8V54.2V52.6V50.9V50.6V50.3C210.961 49.1667 210.994 48.4667 211.061 48.2L211.161 47.8ZM232.44 88.5C231.24 86.6333 230.507 84.9333 230.24 83.4L230.04 81.4C230.04 77.7333 231.507 73.8333 234.44 69.7C235.173 68.6333 236.173 67.3667 237.44 65.9C238.707 64.3667 239.94 63.0667 241.14 62L242.54 60.7L243.94 59.4L246.24 57.3C246.173 57.3667 246.94 56.7 248.54 55.3C249.54 54.7 250.407 54.1 251.14 53.5L251.54 53.3C251.607 53.2333 251.64 53.1333 251.64 53V52.9V52.7C251.507 51.1 251.307 49.5667 251.04 48.1C250.707 46.5667 250.14 46.1 249.34 46.7C249.207 46.7667 248.907 47.0333 248.44 47.5C247.307 48.5 246.307 49.5333 245.44 50.6C243.973 52.2 242.84 53.3333 242.04 54C240.573 55.2 239.273 55.8667 238.14 56C236.807 56 236.007 55.4 235.74 54.2C235.607 53.3333 235.573 52.8 235.64 52.6C236.173 50.1333 237.007 48.1 238.14 46.5C239.273 45.0333 240.673 43.9667 242.34 43.3C242.94 43.0333 243.807 42.9 244.94 42.9C245.54 42.9 246.107 43.1667 246.64 43.7C246.707 43.8333 246.74 44.0333 246.74 44.3C246.74 44.7 246.507 44.9333 246.04 45C245.973 45.0667 245.807 45.1 245.54 45.1C243.607 44.9667 241.84 45.9667 240.24 48.1C239.107 49.9667 238.373 51.5 238.04 52.7L237.84 53.6C237.84 53.8667 237.94 53.9667 238.14 53.9C238.54 53.9 238.94 53.8 239.34 53.6C239.673 53.4667 240.24 53.1 241.04 52.5C241.84 51.8333 242.507 51.2 243.04 50.6L244.74 48.9C245.34 48.1 246.473 46.9333 248.14 45.4C248.273 45.2667 248.673 45 249.34 44.6C249.74 44.4 250.107 44.3 250.44 44.3C251.04 44.3 251.64 44.6 252.24 45.2L253.04 46.6L253.94 49.4C253.94 49.9333 253.973 50.3 254.04 50.5L254.24 51.5L254.44 51.6L254.94 51.4C255.207 51.2667 255.473 51.1333 255.74 51C256.073 50.8 256.44 50.6 256.84 50.4L258.64 49.5C258.973 49.3 259.74 49.0333 260.94 48.7C261.007 48.6333 261.14 48.6 261.34 48.6H261.54H261.74C262.073 48.7333 262.24 48.9667 262.24 49.3C262.307 49.6333 262.207 49.8333 261.94 49.9C261.807 50.0333 261.64 50.1333 261.44 50.2L257.34 52L256.14 52.6L254.84 53.3C254.507 53.4333 254.407 53.6 254.54 53.8C254.607 54.4 254.64 55.7667 254.64 57.9L254.44 61L254.24 62.6C254.173 63.4667 254.007 64.7667 253.74 66.5L252.24 73.7L251.44 77C250.507 80.2 249.307 83.0667 247.84 85.6C246.84 87.0667 245.907 88.2667 245.04 89.2C243.507 90.5333 241.973 91.4 240.44 91.8C239.507 91.9333 238.94 92 238.74 92C237.607 92 236.473 91.7 235.34 91.1C234.207 90.5 233.24 89.6333 232.44 88.5ZM231.94 82.4C232.14 84 232.707 85.4667 233.64 86.8C234.573 88.2 235.74 89.1 237.14 89.5C237.673 89.6333 238.073 89.7 238.34 89.7C239.34 89.7 240.807 89.1 242.74 87.9C243.807 86.7667 244.673 85.6 245.34 84.4C246.073 83.2667 246.84 81.6 247.64 79.4C248.24 77.6667 248.74 75.8 249.14 73.8C249.607 71.7333 249.907 70.4333 250.04 69.9C250.507 67.9667 250.873 65.6667 251.14 63C251.473 60 251.64 58.2333 251.64 57.7C251.64 57.3 251.673 57.0667 251.74 57V56.2V55.4C251.74 55.2667 251.673 55.2333 251.54 55.3C251.407 55.3 251.273 55.3667 251.14 55.5L249.84 56.5C248.973 57.1667 248.507 57.5333 248.44 57.6L247.14 58.7L245.74 60L244.34 61.3L241.74 63.7C237.273 68.1667 234.24 72.5333 232.64 76.8C232.107 78.3333 231.807 79.7 231.74 80.9C231.873 81.5667 231.94 82.0667 231.94 82.4ZM261.773 46.1C262.439 44.9 263.173 43.9667 263.973 43.3C264.639 42.6333 265.539 42.1333 266.673 41.8L267.373 41.7C268.506 41.7 269.073 42.3667 269.073 43.7C269.073 44.6333 268.773 45.5 268.173 46.3C267.506 47.3 266.706 48.2 265.773 49C264.773 49.6667 263.873 50.0667 263.073 50.2C262.873 50.2667 262.706 50.6667 262.573 51.4C262.306 52.1333 262.173 52.9667 262.173 53.9C262.173 55.1667 262.406 56.2667 262.873 57.2C263.406 58.0667 264.206 58.6333 265.273 58.9L266.873 59.1C267.406 59.1 267.739 59.0667 267.873 59C268.473 58.8 269.073 58.5333 269.673 58.2C271.073 57.4667 272.206 56.5333 273.073 55.4C274.006 54.2 274.973 52.6333 275.973 50.7C276.039 50.3667 276.239 50 276.573 49.6L276.673 49.4L276.873 49.1C277.139 48.8333 277.406 48.7667 277.673 48.9C277.939 49.1667 278.073 49.4333 278.073 49.7V50L277.973 50.2C277.039 52.4667 275.939 54.4333 274.673 56.1C273.473 57.7667 272.239 59.0333 270.973 59.9C269.439 60.7667 267.839 61.2 266.173 61.2C265.773 61.2 265.106 61.1333 264.173 61C262.173 60.4667 260.806 59.1333 260.073 57C259.806 56.1333 259.673 55.0333 259.673 53.7C259.673 51.2333 260.373 48.7 261.773 46.1ZM266.973 44L266.873 44.1H266.773C265.373 45.1 264.373 46.3667 263.773 47.9V48C263.773 48.0667 263.806 48.1 263.873 48.1V48C263.939 48 264.039 47.9333 264.173 47.8C265.039 47.1333 265.739 46.3667 266.273 45.5C266.606 45.1 266.806 44.7667 266.873 44.5C266.939 44.4333 266.973 44.3 266.973 44.1V44ZM277.886 46.1C278.553 44.9 279.286 43.9667 280.086 43.3C280.753 42.6333 281.653 42.1333 282.786 41.8L283.486 41.7C284.619 41.7 285.186 42.3667 285.186 43.7C285.186 44.6333 284.886 45.5 284.286 46.3C283.619 47.3 282.819 48.2 281.886 49C280.886 49.6667 279.986 50.0667 279.186 50.2C278.986 50.2667 278.819 50.6667 278.686 51.4C278.419 52.1333 278.286 52.9667 278.286 53.9C278.286 55.1667 278.519 56.2667 278.986 57.2C279.519 58.0667 280.319 58.6333 281.386 58.9L282.986 59.1C283.519 59.1 283.853 59.0667 283.986 59C284.586 58.8 285.186 58.5333 285.786 58.2C287.186 57.4667 288.319 56.5333 289.186 55.4C290.119 54.2 291.086 52.6333 292.086 50.7C292.153 50.3667 292.353 50 292.686 49.6L292.786 49.4L292.986 49.1C293.253 48.8333 293.519 48.7667 293.786 48.9C294.053 49.1667 294.186 49.4333 294.186 49.7V50L294.086 50.2C293.153 52.4667 292.053 54.4333 290.786 56.1C289.586 57.7667 288.353 59.0333 287.086 59.9C285.553 60.7667 283.953 61.2 282.286 61.2C281.886 61.2 281.219 61.1333 280.286 61C278.286 60.4667 276.919 59.1333 276.186 57C275.919 56.1333 275.786 55.0333 275.786 53.7C275.786 51.2333 276.486 48.7 277.886 46.1ZM283.086 44L282.986 44.1H282.886C281.486 45.1 280.486 46.3667 279.886 47.9V48C279.886 48.0667 279.919 48.1 279.986 48.1V48C280.053 48 280.153 47.9333 280.286 47.8C281.153 47.1333 281.853 46.3667 282.386 45.5C282.719 45.1 282.919 44.7667 282.986 44.5C283.053 44.4333 283.086 44.3 283.086 44.1V44Z" fill="white"/>
</svg>
